<svg width="40" height="40" viewBox="0 0 40 40" fill="none" xmlns="http://www.w3.org/2000/svg">
<path d="M27.5 20C27.5 17.05 25.8 14.5167 23.3333 13.2833V16.9667L27.4167 21.05C27.4667 20.7167 27.5 20.3667 27.5 20V20ZM31.6667 20C31.6667 21.5667 31.3333 23.0333 30.7667 24.4L33.2833 26.9167C34.3833 24.85 35 22.5 35 20C35 12.8667 30.0167 6.9 23.3333 5.38333V8.81667C28.15 10.25 31.6667 14.7167 31.6667 20ZM7.11667 5L5 7.11667L12.8833 15H5V25H11.6667L20 33.3333V22.1167L27.0833 29.2C25.9667 30.0667 24.7167 30.75 23.3333 31.1667V34.6C25.6333 34.0833 27.7167 33.0167 29.4833 31.5833L32.8833 35L35 32.8833L20 17.8833L7.11667 5ZM20 6.66667L16.5167 10.15L20 13.6333V6.66667Z" fill="white"/>
</svg>
