<svg width="40" height="41" viewBox="0 0 40 41" fill="none" xmlns="http://www.w3.org/2000/svg">
<path d="M35.7141 0.556976H4.28591C1.91998 0.556976 0 2.47644 0 4.84289V36.2711C0 38.637 1.91947 40.557 4.28591 40.557H35.7141C38.08 40.557 40 38.6375 40 36.2711V4.84289C40 2.47695 38.0805 0.556976 35.7141 0.556976V0.556976ZM24.7585 34.8153C24.0083 34.9494 23.732 34.4852 23.732 34.1012C23.732 33.6192 23.7498 31.1547 23.7498 29.1636C23.7498 27.7709 23.2855 26.8871 22.741 26.4228C26.0446 26.0566 29.5265 25.6015 29.5265 19.8959C29.5265 18.271 28.9459 17.4583 27.9996 16.414C28.1515 16.0301 28.6605 14.4499 27.8478 12.3963C26.6069 12.0123 23.7676 13.9943 23.7676 13.9943C22.5892 13.6641 21.3122 13.4945 20.0531 13.4945C18.7939 13.4945 17.5175 13.6641 16.3386 13.9943C16.3386 13.9943 13.4993 12.0123 12.2584 12.3963C11.4457 14.4407 11.946 16.0214 12.1065 16.414C11.1602 17.4589 10.7138 18.271 10.7138 19.8959C10.7138 25.5746 14.0443 26.0566 17.3478 26.4228C16.9191 26.8068 16.5352 27.4676 16.4016 28.4139C15.5533 28.7979 13.384 29.4587 12.0892 27.173C11.2766 25.7625 9.8127 25.6462 9.8127 25.6462C8.36612 25.6284 9.71467 26.5569 9.71467 26.5569C10.6787 27.0034 11.3573 28.7176 11.3573 28.7176C12.2233 31.3695 16.366 30.4766 16.366 30.4766C16.366 31.7175 16.3838 33.7355 16.3838 34.1017C16.3838 34.4857 16.1161 34.9499 15.3573 34.8158C9.46426 32.8425 5.33936 27.2355 5.33936 20.6822C5.33936 12.4857 11.6072 6.26255 19.8037 6.26255C28.0002 6.26255 34.6429 12.4857 34.6429 20.6822C34.652 27.2355 30.6521 32.8517 24.759 34.8158L24.7585 34.8153ZM15.9998 29.3602C15.8301 29.3957 15.6696 29.3246 15.6514 29.2083C15.6336 29.0742 15.7494 28.9584 15.919 28.9223C16.0887 28.9046 16.2492 28.9757 16.2675 29.092C16.2944 29.2083 16.1781 29.3241 15.9998 29.3597V29.3602ZM15.1516 29.2799C15.1516 29.3962 15.0175 29.4943 14.8392 29.4943C14.6426 29.512 14.509 29.414 14.509 29.2799C14.509 29.1636 14.6431 29.0656 14.8214 29.0656C14.991 29.0478 15.1516 29.1458 15.1516 29.2799ZM13.9285 29.1814C13.8929 29.2977 13.7141 29.351 13.5622 29.2977C13.3926 29.2621 13.2768 29.128 13.3123 29.0117C13.3479 28.8954 13.5267 28.8421 13.6786 28.8776C13.8573 28.931 13.9732 29.0651 13.9285 29.1814V29.1814ZM12.8303 28.6993C12.7501 28.7974 12.5804 28.7796 12.4463 28.646C12.3122 28.5297 12.2767 28.3601 12.3661 28.2798C12.4463 28.1818 12.616 28.1995 12.7501 28.3331C12.8664 28.4494 12.9106 28.6277 12.8303 28.6993ZM12.0176 27.8872C11.9374 27.9405 11.7855 27.8872 11.6875 27.7531C11.5894 27.619 11.5894 27.4671 11.6875 27.4046C11.7855 27.3244 11.9374 27.3869 12.0176 27.5209C12.1157 27.655 12.1157 27.8155 12.0176 27.8872V27.8872ZM11.4376 27.0211C11.3573 27.1014 11.2232 27.0567 11.1252 26.9678C11.0272 26.8515 11.0089 26.7179 11.0896 26.6554C11.1699 26.5752 11.304 26.6199 11.402 26.7088C11.5 26.8251 11.5183 26.9587 11.4376 27.0211ZM10.8392 26.3603C10.8037 26.4406 10.6874 26.4584 10.5893 26.3959C10.473 26.3426 10.4197 26.244 10.4552 26.1638C10.4908 26.1104 10.5893 26.0835 10.7051 26.1282C10.8214 26.1907 10.8748 26.2887 10.8392 26.3603Z" fill="white"/>
</svg>
