<svg width="213" height="80" viewBox="0 0 213 80" fill="none" xmlns="http://www.w3.org/2000/svg">
<g clip-path="url(#clip0_204_302)">
<path d="M109.968 26.4978L120.102 25.8354C120.333 27.511 120.757 28.7579 121.45 29.6542C122.567 31.057 124.109 31.7584 126.151 31.7584C127.654 31.7584 128.848 31.4077 129.657 30.6673C130.428 30.0828 130.89 29.1476 130.89 28.1734C130.89 27.2382 130.466 26.3419 129.734 25.7574C128.964 25.056 127.153 24.3546 124.301 23.7311C119.639 22.679 116.287 21.2762 114.322 19.4837C112.357 17.8081 111.239 15.3531 111.316 12.7423C111.316 10.9498 111.856 9.15732 112.858 7.67656C114.014 6.00097 115.593 4.67608 117.481 3.9357C119.524 3.03945 122.375 2.57184 125.958 2.57184C130.351 2.57184 133.703 3.39015 136.015 5.06575C138.327 6.70238 139.714 9.35216 140.138 12.9761L130.12 13.5606C129.85 12.0019 129.31 10.8719 128.424 10.1315C127.538 9.39113 126.382 9.04042 124.879 9.04042C123.646 9.04042 122.722 9.31319 122.105 9.81977C121.527 10.2874 121.142 10.9888 121.18 11.7681C121.18 12.3526 121.489 12.8982 121.951 13.2489C122.452 13.7165 123.646 14.1451 125.534 14.5348C130.197 15.548 133.51 16.5611 135.552 17.6132C137.595 18.6654 139.059 19.9513 139.945 21.471C140.87 23.0297 141.332 24.8222 141.294 26.6537C141.294 28.8358 140.677 31.018 139.444 32.8495C138.173 34.7589 136.4 36.2396 134.319 37.1359C132.123 38.1101 129.349 38.6167 126.035 38.6167C120.179 38.6167 116.133 37.4866 113.859 35.1875C111.586 32.8885 110.238 30.0049 109.968 26.4978ZM2.42746 38.0321V3.19532H20.1903C23.4655 3.19532 26.0085 3.46809 27.7424 4.0526C29.4378 4.59814 30.9405 5.7282 31.9423 7.24792C33.0597 8.92352 33.5991 10.8719 33.5606 12.8982C33.6762 16.3273 31.9423 19.6006 28.9754 21.3151C27.8195 21.9776 26.5479 22.4452 25.2379 22.679C26.2012 22.9518 27.1644 23.4194 28.0121 23.9649C28.6672 24.5105 29.2066 25.1339 29.7075 25.7964C30.2855 26.4588 30.7864 27.1992 31.2102 27.9786L36.3734 38.0711H24.2746L18.572 27.3551C17.8399 25.9912 17.2234 25.095 16.6454 24.6663C15.8748 24.1208 14.9501 23.848 14.0253 23.848H13.1006V37.9932H2.42746V38.0321ZM13.1006 17.3015H17.6087C18.572 17.2236 19.4967 17.0677 20.4215 16.8339C21.1151 16.717 21.7316 16.3273 22.1554 15.7428C23.1957 14.34 23.0416 12.3526 21.7701 11.1447C21.0765 10.5601 19.7279 10.2484 17.8014 10.2484H13.1006V17.3015ZM0 67.8811L10.1337 67.2187C10.3649 68.8943 10.7887 70.1413 11.4823 71.0375C12.5611 72.4403 14.1409 73.1807 16.1831 73.1807C17.6858 73.1807 18.8802 72.83 19.6894 72.0896C20.46 71.4661 20.9224 70.5699 20.9224 69.5957C20.9224 68.6605 20.4986 67.7642 19.7665 67.1797C18.9958 66.4783 17.1849 65.7769 14.295 65.1534C9.63278 64.1013 6.28057 62.6985 4.31549 60.906C2.3504 59.2304 1.233 56.7754 1.31006 54.1646C1.31006 52.3721 1.84949 50.5796 2.8513 49.0989C4.00724 47.4233 5.58701 46.0984 7.47504 45.358C9.51719 44.4618 12.3685 43.9942 15.9519 43.9942C20.3444 43.9942 23.6966 44.8125 26.0085 46.4881C28.3204 48.1637 29.669 50.7745 30.0928 54.3984L20.0747 54.9829C19.805 53.4243 19.2656 52.2942 18.3793 51.5538C17.5317 50.8134 16.3372 50.4627 14.8345 50.5017C13.6015 50.5017 12.6767 50.7745 12.0602 51.32C11.4437 51.7876 11.097 52.489 11.1355 53.2684C11.1355 53.8529 11.4437 54.3984 11.9061 54.7491C12.407 55.2168 13.6015 55.6454 15.4895 56.0351C20.1518 57.0482 23.4655 58.0614 25.5076 59.1135C27.5497 60.1656 29.0139 61.4515 29.9001 62.9713C30.8249 64.53 31.2873 66.3225 31.2873 68.115C31.2873 70.2971 30.6322 72.4403 29.4378 74.2718C28.1662 76.1812 26.3938 77.662 24.3131 78.5582C22.1169 79.5324 19.3426 80.039 16.0289 80.039C10.1722 80.039 6.12645 78.9089 3.85311 76.6098C1.57978 74.2718 0.308249 71.3882 0 67.8811H0Z" fill="white"/>
<path d="M51.2464 65.1534L60.5709 67.998C60.07 70.375 59.0296 72.6352 57.604 74.6225C56.2939 76.376 54.56 77.7399 52.595 78.6361C50.5913 79.5324 48.0483 80 44.9658 80C41.2283 80 38.1458 79.4544 35.7954 78.3634C33.4065 77.2723 31.3643 75.3239 29.6304 72.5572C27.8965 69.7905 27.0488 66.2445 27.0488 61.9191C27.0488 56.152 28.5515 51.7097 31.5955 48.6313C34.6395 45.5528 38.9164 43.9941 44.4649 43.9941C48.8189 43.9941 52.2096 44.8904 54.7142 46.6439C57.1802 48.4364 59.0296 51.1641 60.2626 54.8271L50.8611 56.9313C50.6299 56.113 50.2831 55.2947 49.8207 54.5933C49.2427 53.775 48.5107 53.1515 47.6244 52.6839C46.7382 52.2163 45.7364 52.0214 44.7346 52.0214C42.3071 52.0214 40.4577 52.9956 39.1861 54.9829C38.2228 56.4247 37.7219 58.7238 37.7219 61.8412C37.7219 65.699 38.2999 68.3487 39.4558 69.7905C40.6118 71.2323 42.2301 71.9337 44.3493 71.9337C46.3914 71.9337 47.9327 71.3492 48.973 70.2192C50.0134 69.0112 50.784 67.3356 51.2464 65.1534ZM73.0164 44.5787H83.651V56.7754H95.2874V44.5787H105.999V79.4155H95.2874V65.3093H83.651V79.4155H73.0164V44.5787Z" fill="white"/>
<path d="M104.535 61.9971C104.535 56.3079 106.115 51.8656 109.236 48.7092C112.357 45.5529 116.749 43.9552 122.336 43.9552C128.077 43.9552 132.47 45.5139 135.591 48.6313C138.712 51.7487 140.253 56.113 140.253 61.7243C140.253 65.8159 139.56 69.1281 138.211 71.7389C136.901 74.3108 134.859 76.415 132.354 77.8178C129.773 79.2596 126.575 80 122.76 80C118.868 80 115.67 79.3765 113.127 78.1296C110.507 76.8047 108.349 74.7394 106.924 72.2065C105.344 69.4788 104.535 66.0887 104.535 61.9971ZM115.17 62.0361C115.17 65.5431 115.825 68.076 117.096 69.6347C118.368 71.1544 120.14 71.9338 122.375 71.9338C124.648 71.9338 126.421 71.1934 127.692 69.6737C128.964 68.1539 129.58 65.4652 129.58 61.5684C129.58 58.2952 128.925 55.8792 127.615 54.3985C126.305 52.8787 124.533 52.1383 122.298 52.1383C120.333 52.0604 118.445 52.9177 117.135 54.4374C115.825 55.9571 115.17 58.49 115.17 62.0361ZM151.158 61.9971C151.158 56.3079 152.737 51.8656 155.858 48.7092C158.979 45.5529 163.372 43.9552 168.959 43.9552C174.7 43.9552 179.131 45.5139 182.214 48.6313C185.296 51.7487 186.876 56.113 186.876 61.7243C186.876 65.8159 186.182 69.1281 184.834 71.7389C183.524 74.3108 181.482 76.415 178.977 77.8178C176.395 79.2596 173.197 80 169.383 80C165.491 80 162.293 79.3765 159.75 78.1296C157.13 76.8047 154.972 74.7394 153.547 72.2065C151.967 69.4788 151.158 66.0887 151.158 61.9971ZM161.792 62.0361C161.792 65.5431 162.447 68.076 163.719 69.6347C164.99 71.1544 166.763 71.9338 168.997 71.9338C171.271 71.9338 173.043 71.1934 174.315 69.6737C175.586 68.1539 176.203 65.4652 176.203 61.5684C176.203 58.2952 175.548 55.8792 174.238 54.3985C172.928 52.8787 171.155 52.1383 168.92 52.1383C166.955 52.0604 165.029 52.9177 163.757 54.4374C162.447 55.9571 161.792 58.49 161.792 62.0361Z" fill="white"/>
<path d="M185.759 44.5787H196.393V70.8427H213V79.4155H185.72V44.5787H185.759Z" fill="white"/>
<path d="M174.037 42.5682C184.744 34.4085 188.045 20.5764 181.411 11.6733C174.777 2.77033 160.72 2.16781 150.013 10.3276C139.306 18.4873 136.005 32.3195 142.639 41.2225C149.273 50.1255 163.33 50.728 174.037 42.5682Z" fill="white"/>
<path d="M130.74 25.4632L169.482 -4.06183L193.529 28.2103L154.787 57.7353L130.74 25.4632Z" fill="white"/>
<path d="M174.037 42.5682C184.744 34.4085 188.045 20.5763 181.411 11.6733C174.777 2.77033 160.72 2.16781 150.013 10.3276C139.306 18.4873 136.005 32.3195 142.639 41.2225C149.273 50.1255 163.33 50.728 174.037 42.5682Z" fill="white" stroke="black" stroke-width="4" stroke-miterlimit="10"/>
<path d="M130.74 25.4632L169.482 -4.06183L193.529 28.2103L154.787 57.7353L130.74 25.4632Z" stroke="black" stroke-width="4" stroke-miterlimit="10"/>
<path d="M174.037 42.5682C184.744 34.4085 188.045 20.5764 181.411 11.6733C174.777 2.77033 160.72 2.16781 150.013 10.3276C139.306 18.4873 136.005 32.3195 142.639 41.2225C149.273 50.1255 163.33 50.728 174.037 42.5682Z" stroke="black" stroke-width="4" stroke-miterlimit="10"/>
<path d="M130.74 25.4632L169.482 -4.06183L193.529 28.2103L154.787 57.7353L130.74 25.4632Z" fill="white"/>
<path d="M174.037 42.5682C184.744 34.4085 188.045 20.5763 181.411 11.6733C174.777 2.77033 160.72 2.16781 150.013 10.3276C139.306 18.4873 136.005 32.3195 142.639 41.2225C149.273 50.1255 163.33 50.728 174.037 42.5682Z" fill="white" stroke="black" stroke-width="4" stroke-miterlimit="10"/>
<path d="M130.74 25.4632L169.482 -4.06183L193.529 28.2103L154.787 57.7353L130.74 25.4632Z" stroke="#9616A8" stroke-width="4" stroke-miterlimit="10"/>
<path d="M115.333 22.0324L170.661 -20.1338L208.946 31.2459L153.618 73.412L115.333 22.0324Z" stroke="#9616A8" stroke-width="4" stroke-miterlimit="10"/>
<path d="M174.037 42.5682C184.744 34.4085 188.045 20.5764 181.411 11.6733C174.777 2.77033 160.72 2.16781 150.013 10.3276C139.306 18.4873 136.005 32.3195 142.639 41.2225C149.273 50.1255 163.33 50.728 174.037 42.5682Z" stroke="#9616A8" stroke-width="4" stroke-miterlimit="10"/>
<path d="M151.196 23.887L155.049 21.1593L159.789 27.9786C160.598 29.0697 161.214 30.2387 161.677 31.5246C161.946 32.4988 161.869 33.5509 161.484 34.4861C160.983 35.6552 160.174 36.6294 159.095 37.3308C157.823 38.227 156.745 38.7336 155.82 38.8895C154.934 39.0453 154.009 38.8895 153.161 38.4998C152.236 38.0322 151.427 37.3697 150.811 36.5124L154.124 33.3951C154.394 33.8237 154.741 34.2134 155.126 34.5251C155.396 34.7199 155.704 34.8369 156.051 34.8369C156.321 34.8369 156.59 34.7199 156.783 34.5641C157.168 34.3303 157.438 33.8627 157.4 33.3951C157.284 32.7326 157.014 32.0702 156.59 31.5636L151.196 23.887ZM162.755 28.2124L166.262 25.4067C166.647 25.8744 167.148 26.2251 167.687 26.4199C168.458 26.6537 169.267 26.4978 169.922 25.9913C170.385 25.6795 170.77 25.2509 170.924 24.7053C171.155 24.0039 170.77 23.2246 170.076 22.9908C169.961 22.9518 169.845 22.9128 169.73 22.9128C169.267 22.8739 168.458 23.0687 167.264 23.5753C165.298 24.3936 163.757 24.7053 162.601 24.5884C161.484 24.4715 160.444 23.887 159.827 22.9128C159.365 22.2504 159.133 21.471 159.095 20.6917C159.095 19.7954 159.326 18.8992 159.827 18.1588C160.559 17.1067 161.445 16.2104 162.524 15.509C164.143 14.379 165.568 13.8334 166.801 13.8334C168.034 13.8334 169.19 14.4179 170.269 15.6259L166.801 18.3926C166.108 17.4964 164.798 17.3015 163.911 18.0029L163.796 18.1198C163.41 18.3537 163.141 18.7044 162.987 19.133C162.871 19.4447 162.948 19.7954 163.141 20.0682C163.295 20.2631 163.526 20.4189 163.796 20.4189C164.104 20.4579 164.643 20.302 165.414 19.9513C167.341 19.133 168.805 18.6654 169.807 18.5095C170.654 18.3537 171.541 18.4316 172.35 18.7823C173.082 19.094 173.698 19.6396 174.122 20.302C174.662 21.0814 174.97 22.0166 175.008 22.9908C175.047 24.0039 174.777 24.9781 174.238 25.8354C173.544 26.8875 172.658 27.7838 171.618 28.4852C169.498 29.9659 167.764 30.5894 166.377 30.3556C164.875 30.1218 163.642 29.3425 162.755 28.2124Z" fill="#9616A8"/>
</g>
<defs>
<clipPath id="clip0_204_302">
<rect width="213" height="80" fill="white"/>
</clipPath>
</defs>
</svg>
